<svg width="68" height="36" viewBox="0 0 68 36" fill="none" xmlns="http://www.w3.org/2000/svg">
<path d="M65.3468 29.1422C64.8914 29.0115 63.4853 28.6404 63.0861 28.2865C62.8476 28.0765 62.6958 27.8401 62.6958 27.4955C62.6958 27.2802 62.8943 26.3069 64.4044 26.3175C64.7185 26.3202 65.6465 26.4112 66.2414 27.0755L67.9817 25.1884C66.8408 24.2851 65.1033 23.9946 64.4522 23.9946C62.7787 23.9946 61.809 24.6192 61.4032 24.9309C60.9956 25.2426 60.0905 25.9808 60.061 27.7054C60.041 28.8821 60.4991 29.9966 62.7609 30.7387C63.2229 30.8906 64.7969 31.4677 65.0633 31.6658C65.3279 31.8652 65.4708 32.1359 65.4613 32.4806C65.4413 33.2135 64.7675 33.6744 63.705 33.6744C63.2363 33.6744 62.1009 33.4895 61.4938 32.5928L59.6885 34.5605C60.3418 35.23 61.5071 35.9352 63.5587 35.996C64.1536 36.0144 67.8499 35.996 67.9989 32.2376C68.0389 31.197 67.6664 29.8051 65.3468 29.1422Z" fill="#434244"/>
<path d="M38.9561 35.7452H46.6823V33.1912H41.5311V31.2751H44.1074V28.7211H41.5311V26.8049H46.6823V24.251H38.9561V35.7452Z" fill="#434244"/>
<path d="M27.7541 24.2271H23.8916V35.7213H26.4666V33.1673H27.7541C30.2425 33.1673 32.2609 31.1666 32.2609 28.6971C32.2609 26.229 30.2439 24.2271 27.7541 24.2271ZM27.7541 30.6133H26.4666V26.7823H27.7541C28.8192 26.7823 29.686 27.642 29.686 28.6985C29.686 29.7549 28.8192 30.6133 27.7541 30.6133Z" fill="#434244"/>
<path d="M36.6384 24.251H34.0635V35.7452H36.6384V24.251Z" fill="#434244"/>
<path d="M15.6457 24.2271L11.4277 35.7213H14.1678L17.0157 27.9616L18.9263 33.1673H17.0157L16.0784 35.7213H22.6037L18.3858 24.2271H15.6457Z" fill="#434244"/>
<path d="M55.8211 31.3213L51.7059 24.251H48.7314V35.7452H51.3065V28.6749L55.4219 35.7452H58.3965V24.251H55.8211V31.3213Z" fill="#434244"/>
<path d="M10.7912 24.251H7.69965L5.39629 27.6897L3.09159 24.251H0L3.84919 29.9981L0 35.7452H3.09159L5.39629 32.3051L7.69965 35.7452H10.7912L6.94206 29.9981L10.7912 24.251Z" fill="#434244"/>
<path d="M36.8654 7.66309H31.2068L23.0918 19.1573C26.6387 19.1573 29.962 17.4406 31.9964 14.5591L34.0361 11.671L36.0759 14.5591C38.1103 17.4406 41.4335 19.1573 44.9805 19.1573L36.8654 7.66309Z" fill="#2E8DCC"/>
<path d="M34.0384 5.62036C35.6031 5.62036 36.8716 4.36221 36.8716 2.81019C36.8716 1.25815 35.6031 0 34.0384 0C32.4736 0 31.2051 1.25815 31.2051 2.81019C31.2051 4.36221 32.4736 5.62036 34.0384 5.62036Z" fill="#2E8DCC"/>
</svg>
